<svg width="25" height="24" viewBox="0 0 25 24" fill="none" xmlns="http://www.w3.org/2000/svg">
<path fill-rule="evenodd" clip-rule="evenodd" d="M4.14467 14.8378C3.5252 12.9053 3.57884 10.8199 4.29681 8.92175L4.2973 8.92044L4.17257 8.87324L1.82546 7.98502L1.70073 7.93781L1.69961 7.94076C1.38336 8.77713 1.16561 9.64126 1.04682 10.5162C0.812679 12.2406 0.962918 14.007 1.50089 15.6852C2.31212 18.216 3.95715 20.3972 6.16752 21.8728C8.37789 23.3483 11.0231 24.0312 13.6715 23.8099C16.3199 23.5887 18.8152 22.4764 20.7501 20.6545C22.685 18.8326 23.9453 16.4087 24.3253 13.7784C24.7054 11.1481 24.1828 8.46661 22.8427 6.17153C21.5027 3.87646 19.4244 2.1033 16.9469 1.14139C15.304 0.503515 13.5499 0.247371 11.8145 0.377429C10.933 0.443494 10.0563 0.609211 9.20149 0.875163L9.24111 1.00251L9.98663 3.39876L10.0263 3.52611L10.0276 3.52569C11.9654 2.92312 14.0503 2.99494 15.9421 3.72945C17.8343 4.46414 19.4217 5.81845 20.4452 7.57138C21.4687 9.32432 21.8679 11.3724 21.5776 13.3814C21.2873 15.3904 20.3247 17.2417 18.8469 18.6332C17.369 20.0247 15.4632 20.8743 13.4404 21.0433C11.4176 21.2123 9.39721 20.6907 7.70896 19.5637C6.02072 18.4367 4.76428 16.7708 4.14467 14.8378ZM5.68566 5.98766C6.66065 5.98766 7.45103 5.19728 7.45103 4.2223C7.45103 3.24732 6.66065 2.45694 5.68566 2.45694C4.71068 2.45694 3.9203 3.24732 3.9203 4.2223C3.9203 5.19728 4.71068 5.98766 5.68566 5.98766Z" fill="#101828"/>
</svg>
