<svg width="25" height="24" viewBox="0 0 25 24" fill="none" xmlns="http://www.w3.org/2000/svg">
<g clip-path="url(#clip0_1609_15)">
<path d="M6.69128 6.79979C6.4191 6.79979 6.19844 7.02044 6.19844 7.29263C6.19844 7.56482 6.4191 7.78547 6.69128 7.78547H18.688C18.9601 7.78547 19.1808 7.56482 19.1808 7.29263C19.1808 7.02044 18.9601 6.79979 18.688 6.79979H6.69128Z" stroke="#101828" stroke-width="0.985681" stroke-linecap="round" stroke-linejoin="round"/>
<path d="M1.84714 6.46547V17.7298C1.84714 19.4927 3.24319 20.9688 5.02301 20.9688H20.3563C22.1361 20.9688 23.5321 19.4927 23.5321 17.7298V6.46547C23.5321 4.70256 22.1361 3.22652 20.3563 3.22652H5.02301C3.24319 3.22652 1.84714 4.70256 1.84714 6.46547Z" stroke="#101828" stroke-width="1.97136"/>
</g>
<defs>
<clipPath id="clip0_1609_15">
<rect width="23.6563" height="23.6563" fill="white" transform="translate(0.86145 0.269485)"/>
</clipPath>
</defs>
</svg>
