<svg width="38" height="37" viewBox="0 0 38 37" fill="none" xmlns="http://www.w3.org/2000/svg">
<path d="M19.2812 36.8027C16.7426 36.8027 14.3569 36.3207 12.1241 35.3566C9.89137 34.3926 7.94916 33.0853 6.29752 31.4349C4.64588 29.7833 3.33864 27.8411 2.37579 25.6083C1.41295 23.3755 0.930911 20.9898 0.929688 18.4512C0.929688 15.9125 1.41172 13.5268 2.37579 11.2941C3.33986 9.06129 4.6471 7.11908 6.29752 5.46744C7.94916 3.8158 9.89137 2.50856 12.1241 1.54571C14.3569 0.582867 16.7426 0.100833 19.2812 0.0996094C21.8199 0.0996094 24.2056 0.581644 26.4384 1.54571C28.6711 2.50978 30.6133 3.81702 32.265 5.46744C33.9166 7.11908 35.2245 9.06129 36.1885 11.2941C37.1526 13.5268 37.634 15.9125 37.6328 18.4512C37.6328 20.9898 37.1508 23.3755 36.1867 25.6083C35.2226 27.8411 33.9154 29.7833 32.265 31.4349C30.6133 33.0865 28.6711 34.3944 26.4384 35.3585C24.2056 36.3225 21.8199 36.804 19.2812 36.8027ZM13.9593 32.1231L16.1615 27.0764C14.8769 26.6176 13.7684 25.9068 12.8362 24.944C11.9039 23.9811 11.1772 22.8568 10.656 21.5709L5.60934 23.6814C6.31281 25.6389 7.39861 27.3517 8.86674 28.8198C10.3349 30.2879 12.0324 31.389 13.9593 32.1231ZM10.656 15.3314C11.176 14.0468 11.9027 12.9231 12.8362 11.9602C13.7697 10.9974 14.8781 10.2859 16.1615 9.82594L14.0511 4.77926C12.0936 5.51332 10.3807 6.61441 8.91262 8.08254C7.44449 9.55066 6.3434 11.2635 5.60934 13.221L10.656 15.3314ZM19.2812 23.9566C20.8105 23.9566 22.1104 23.4214 23.181 22.3509C24.2515 21.2804 24.7867 19.9805 24.7867 18.4512C24.7867 16.9219 24.2515 15.622 23.181 14.5515C22.1104 13.481 20.8105 12.9457 19.2812 12.9457C17.752 12.9457 16.452 13.481 15.3815 14.5515C14.311 15.622 13.7758 16.9219 13.7758 18.4512C13.7758 19.9805 14.311 21.2804 15.3815 22.3509C16.452 23.4214 17.752 23.9566 19.2812 23.9566ZM24.6032 32.1231C26.5301 31.389 28.2203 30.2959 29.6737 28.8437C31.1272 27.3914 32.2203 25.7013 32.9532 23.7731L27.9065 21.5709C27.4477 22.8555 26.7442 23.9646 25.7961 24.8981C24.8479 25.8316 23.7468 26.5577 22.4928 27.0764L24.6032 32.1231ZM27.9065 15.2396L32.9532 13.1292C32.2191 11.2023 31.126 9.51274 29.6737 8.06052C28.2215 6.6083 26.5313 5.51454 24.6032 4.77926L22.4928 9.91769C23.7468 10.3765 24.8326 11.0726 25.7502 12.0061C26.6678 12.9396 27.3865 14.0174 27.9065 15.2396Z" fill="#DC143B"/>
</svg>
