<svg width="35" height="39" viewBox="0 0 35 39" fill="none" xmlns="http://www.w3.org/2000/svg">
<path fill-rule="evenodd" clip-rule="evenodd" d="M1.0912 6.16097C0.367188 7.19143 0.367188 10.256 0.367188 16.3794V19.3942C0.367188 30.193 8.48642 35.4354 13.5813 37.6591C14.9623 38.2625 15.6537 38.5651 17.6055 38.5651C19.5591 38.5651 20.2487 38.2625 21.6297 37.6591C26.7245 35.4335 34.8438 30.195 34.8438 19.3942V16.3794C34.8438 10.2541 34.8438 7.19143 34.1197 6.16097C33.3977 5.13241 30.5189 4.146 24.7594 2.17509L23.6619 1.79968C20.6605 0.77113 19.1607 0.257812 17.6055 0.257812C16.0521 0.257812 14.5505 0.77113 11.5491 1.79968L10.4516 2.17318C4.69208 4.146 1.81329 5.13241 1.0912 6.16097ZM15.4239 12.4453L15.1749 12.8954C14.8971 13.3915 14.7592 13.6385 14.5447 13.8014C14.3302 13.9642 14.062 14.0255 13.5257 14.1461L13.0392 14.2572C11.1545 14.6824 10.2122 14.8969 9.98806 15.6171C9.76397 16.3392 10.4056 17.09 11.6908 18.5917L12.0241 18.9805C12.388 19.4076 12.57 19.6202 12.6523 19.8846C12.7347 20.1489 12.7079 20.4343 12.6523 21.0031L12.6025 21.5203C12.4072 23.5257 12.3114 24.5274 12.8975 24.9737C13.4836 25.42 14.3666 25.012 16.1306 24.2018L16.5884 23.9911C17.0883 23.7612 17.3392 23.6444 17.6055 23.6444C17.8717 23.6444 18.1226 23.7593 18.6225 23.9892L19.0803 24.1999C20.8424 25.0139 21.7273 25.42 22.3134 24.9737C22.8995 24.5293 22.8038 23.5257 22.6084 21.5222L22.5586 21.0031C22.5031 20.4343 22.4762 20.1489 22.5586 19.8846C22.641 19.6202 22.8229 19.4057 23.1868 18.9805L23.5201 18.5917C24.8034 17.09 25.447 16.3392 25.2229 15.6171C24.9988 14.8969 24.0564 14.6824 22.1717 14.2572L21.6852 14.1461C21.1489 14.0255 20.8807 13.9642 20.6662 13.8014C20.4517 13.6385 20.3138 13.3915 20.038 12.8954L19.7871 12.4453C18.816 10.7042 18.3314 9.83463 17.6055 9.83463C16.8795 9.83463 16.395 10.7042 15.4239 12.4453Z" fill="#DC143B"/>
</svg>
