<svg width="43" height="48" viewBox="0 0 43 48" fill="none" xmlns="http://www.w3.org/2000/svg">
<path fill-rule="evenodd" clip-rule="evenodd" d="M4.69276 11.0731C3.96875 12.1035 3.96875 15.1681 3.96875 21.2915V24.3063C3.96875 35.1052 12.088 40.3475 17.1829 42.5712C18.5638 43.1746 19.2553 43.4772 21.207 43.4772C23.1607 43.4772 23.8502 43.1746 25.2312 42.5712C30.3261 40.3456 38.4453 35.1071 38.4453 24.3063V21.2915C38.4453 15.1662 38.4453 12.1035 37.7213 11.0731C36.9992 10.0445 34.1204 9.05811 28.3609 7.0872L27.2634 6.71179C24.262 5.68324 22.7623 5.16992 21.207 5.16992C19.6537 5.16992 18.152 5.68324 15.1506 6.71179L14.0531 7.08529C8.29364 9.05811 5.41485 10.0445 4.69276 11.0731ZM19.0254 17.3574L18.7764 17.8075C18.4987 18.3036 18.3608 18.5507 18.1463 18.7135C17.9318 18.8763 17.6636 18.9376 17.1273 19.0582L16.6408 19.1693C14.7561 19.5945 13.8137 19.8091 13.5896 20.5292C13.3655 21.2513 14.0072 22.0021 15.2924 23.5038L15.6257 23.8926C15.9896 24.3197 16.1715 24.5323 16.2539 24.7967C16.3363 25.061 16.3094 25.3464 16.2539 25.9152L16.2041 26.4324C16.0087 28.4378 15.913 29.4395 16.4991 29.8858C17.0852 30.3321 17.9681 29.9241 19.7322 29.1139L20.19 28.9032C20.6899 28.6734 20.9408 28.5565 21.207 28.5565C21.4733 28.5565 21.7242 28.6714 22.2241 28.9013L22.6819 29.112C24.444 29.926 25.3289 30.3321 25.915 29.8858C26.5011 29.4414 26.4053 28.4378 26.21 26.4343L26.1602 25.9152C26.1046 25.3464 26.0778 25.061 26.1602 24.7967C26.2425 24.5323 26.4245 24.3178 26.7884 23.8926L27.1217 23.5038C28.405 22.0021 29.0485 21.2513 28.8244 20.5292C28.6003 19.8091 27.658 19.5945 25.7733 19.1693L25.2868 19.0582C24.7505 18.9376 24.4823 18.8763 24.2678 18.7135C24.0533 18.5507 23.9154 18.3036 23.6395 17.8075L23.3886 17.3574C22.4175 15.6163 21.933 14.7467 21.207 14.7467C20.4811 14.7467 19.9965 15.6163 19.0254 17.3574Z" fill="#DC143B"/>
</svg>
