<svg width="47" height="46" viewBox="0 0 47 46" fill="none" xmlns="http://www.w3.org/2000/svg">
<path d="M24.1719 41.7148C21.6332 41.7148 19.2475 41.2328 17.0148 40.2687C14.782 39.3047 12.8398 37.9974 11.1881 36.347C9.5365 34.6954 8.22926 32.7532 7.26642 30.5204C6.30357 28.2876 5.82154 25.9019 5.82031 23.3633C5.82031 20.8246 6.30235 18.4389 7.26642 16.2062C8.23048 13.9734 9.53773 12.0312 11.1881 10.3796C12.8398 8.72791 14.782 7.42067 17.0148 6.45782C19.2475 5.49498 21.6332 5.01294 24.1719 5.01172C26.7105 5.01172 29.0962 5.49375 31.329 6.45782C33.5618 7.42189 35.504 8.72913 37.1556 10.3796C38.8072 12.0312 40.1151 13.9734 41.0792 16.2062C42.0432 18.4389 42.5247 20.8246 42.5234 23.3633C42.5234 25.9019 42.0414 28.2876 41.0773 30.5204C40.1133 32.7532 38.806 34.6954 37.1556 36.347C35.504 37.9986 33.5618 39.3065 31.329 40.2706C29.0962 41.2346 26.7105 41.7161 24.1719 41.7148ZM18.8499 37.0352L21.0521 31.9885C19.7675 31.5297 18.6591 30.8189 17.7268 29.8561C16.7945 28.8932 16.0678 27.7689 15.5466 26.483L10.5 28.5935C11.2034 30.551 12.2892 32.2638 13.7574 33.7319C15.2255 35.2 16.923 36.3011 18.8499 37.0352ZM15.5466 20.2435C16.0666 18.9589 16.7933 17.8352 17.7268 16.8723C18.6603 15.9095 19.7687 15.1981 21.0521 14.738L18.9417 9.69137C16.9842 10.4254 15.2714 11.5265 13.8032 12.9946C12.3351 14.4628 11.234 16.1756 10.5 18.1331L15.5466 20.2435ZM24.1719 28.8687C25.7012 28.8687 27.0011 28.3335 28.0716 27.263C29.1421 26.1925 29.6773 24.8926 29.6773 23.3633C29.6773 21.834 29.1421 20.5341 28.0716 19.4636C27.0011 18.3931 25.7012 17.8578 24.1719 17.8578C22.6426 17.8578 21.3427 18.3931 20.2722 19.4636C19.2017 20.5341 18.6664 21.834 18.6664 23.3633C18.6664 24.8926 19.2017 26.1925 20.2722 27.263C21.3427 28.3335 22.6426 28.8687 24.1719 28.8687ZM29.4938 37.0352C31.4207 36.3011 33.1109 35.208 34.5644 33.7558C36.0178 32.3035 37.1109 30.6134 37.8438 28.6852L32.7971 26.483C32.3383 27.7677 31.6348 28.8767 30.6867 29.8102C29.7385 30.7437 28.6374 31.4698 27.3834 31.9885L29.4938 37.0352ZM32.7971 20.1518L37.8438 18.0413C37.1097 16.1144 36.0166 14.4248 34.5644 12.9726C33.1121 11.5204 31.422 10.4267 29.4938 9.69137L27.3834 14.8298C28.6374 15.2886 29.7232 15.9847 30.6408 16.9182C31.5584 17.8517 32.2771 18.9295 32.7971 20.1518Z" fill="#DC143B"/>
</svg>
