<svg width="25" height="26" viewBox="0 0 25 26" fill="none" xmlns="http://www.w3.org/2000/svg">
<path fill-rule="evenodd" clip-rule="evenodd" d="M24.9014 13.2786C24.9014 20.1262 19.3503 25.6773 12.5027 25.6773C5.6551 25.6773 0.104004 20.1262 0.104004 13.2786C0.104004 6.43098 5.6551 0.879883 12.5027 0.879883C19.3503 0.879883 24.9014 6.43098 24.9014 13.2786ZM14.3477 6.39224C14.8438 6.52516 15.1382 7.03506 15.0053 7.53113L11.7962 19.5074C11.6633 20.0034 11.1534 20.2978 10.6573 20.1649C10.1613 20.032 9.86688 19.5221 9.99981 19.026L13.2088 7.04978C13.3418 6.55371 13.8517 6.25932 14.3477 6.39224ZM16.1847 8.90145C16.5479 8.5383 17.1367 8.5383 17.4998 8.90145L17.7581 9.15976C18.5459 9.94743 19.2028 10.6043 19.6541 11.1959C20.1305 11.8203 20.4646 12.48 20.4646 13.2786C20.4646 14.0772 20.1305 14.737 19.6541 15.3614C19.2028 15.9529 18.5459 16.6097 17.7582 17.3974L17.4998 17.6558C17.1367 18.0189 16.5479 18.0189 16.1847 17.6558C15.8216 17.2926 15.8216 16.7038 16.1847 16.3407L16.3975 16.128C17.2426 15.2828 17.809 14.7137 18.1755 14.2332C18.5257 13.7743 18.6048 13.5071 18.6048 13.2786C18.6048 13.0501 18.5257 12.7829 18.1755 12.324C17.809 11.8436 17.2426 11.2744 16.3975 10.4293L16.1847 10.2165C15.8216 9.85338 15.8216 9.2646 16.1847 8.90145ZM7.50586 8.90145C7.86901 8.5383 8.45779 8.5383 8.82094 8.90145C9.18409 9.2646 9.18409 9.85338 8.82094 10.2165L8.60822 10.4293C7.76305 11.2744 7.19671 11.8436 6.83016 12.324C6.47998 12.7829 6.40083 13.0501 6.40083 13.2786C6.40083 13.5071 6.47998 13.7743 6.83016 14.2332C7.19671 14.7137 7.76305 15.2828 8.60822 16.128L8.82094 16.3407C9.18409 16.7038 9.18409 17.2926 8.82094 17.6558C8.45779 18.0189 7.86901 18.0189 7.50586 17.6558L7.24754 17.3974C6.4598 16.6098 5.80292 15.9529 5.35157 15.3614C4.87517 14.737 4.54103 14.0772 4.54103 13.2786C4.54103 12.48 4.87517 11.8203 5.35157 11.1959C5.80292 10.6043 6.4598 9.94745 7.24754 9.15976L7.50586 8.90145Z" fill="#DC143B"/>
</svg>
