<svg width="38" height="39" viewBox="0 0 38 39" fill="none" xmlns="http://www.w3.org/2000/svg">
<path d="M9.45742 16.8803L19 23.0013L28.5425 16.8803L20.0798 11.4519C19.4218 11.0298 18.5782 11.0298 17.9201 11.4519L9.45742 16.8803ZM30.9282 16.8803V29.1224C30.9282 29.7717 30.6768 30.3945 30.2294 30.8537C29.782 31.3128 29.1752 31.5708 28.5425 31.5708H9.45742C8.82471 31.5708 8.21791 31.3128 7.77051 30.8537C7.32312 30.3945 7.07178 29.7717 7.07178 29.1224V16.8803C7.07178 15.9866 7.53698 15.2154 8.22881 14.7869L17.9193 8.56408C18.5777 8.14127 19.4222 8.14128 20.0807 8.56409L29.7711 14.7869C30.463 15.2154 30.9282 15.9866 30.9282 16.8803Z" fill="#DC143B"/>
</svg>
