<svg width="22" height="17" viewBox="0 0 22 17" fill="none" xmlns="http://www.w3.org/2000/svg">
<g clip-path="url(#clip0_193_1792)">
<rect y="0.345703" width="22" height="16" rx="3" fill="white"/>
<path fill-rule="evenodd" clip-rule="evenodd" d="M0 0.345703H9.42857V7.81237H0V0.345703Z" fill="#1A47B8"/>
<path fill-rule="evenodd" clip-rule="evenodd" d="M9.42857 0.345703V1.41237H22V0.345703H9.42857ZM9.42857 2.47904V3.5457H22V2.47904H9.42857ZM9.42857 4.61237V5.67904H22V4.61237H9.42857ZM9.42857 6.7457V7.81237H22V6.7457H9.42857ZM0 8.87904V9.9457H22V8.87904H0ZM0 11.0124V12.079H22V11.0124H0ZM0 13.1457V14.2124H22V13.1457H0ZM0 15.279V16.3457H22V15.279H0Z" fill="#F93939"/>
<path fill-rule="evenodd" clip-rule="evenodd" d="M1.04785 1.41211V2.47878H2.09547V1.41211H1.04785ZM3.14309 1.41211V2.47878H4.19071V1.41211H3.14309ZM5.23833 1.41211V2.47878H6.28595V1.41211H5.23833ZM7.33357 1.41211V2.47878H8.38119V1.41211H7.33357ZM6.28595 2.47878V3.54544H7.33357V2.47878H6.28595ZM4.19071 2.47878V3.54544H5.23833V2.47878H4.19071ZM2.09547 2.47878V3.54544H3.14309V2.47878H2.09547ZM1.04785 3.54544V4.61211H2.09547V3.54544H1.04785ZM3.14309 3.54544V4.61211H4.19071V3.54544H3.14309ZM5.23833 3.54544V4.61211H6.28595V3.54544H5.23833ZM7.33357 3.54544V4.61211H8.38119V3.54544H7.33357ZM1.04785 5.67878V6.74544H2.09547V5.67878H1.04785ZM3.14309 5.67878V6.74544H4.19071V5.67878H3.14309ZM5.23833 5.67878V6.74544H6.28595V5.67878H5.23833ZM7.33357 5.67878V6.74544H8.38119V5.67878H7.33357ZM6.28595 4.61211V5.67878H7.33357V4.61211H6.28595ZM4.19071 4.61211V5.67878H5.23833V4.61211H4.19071ZM2.09547 4.61211V5.67878H3.14309V4.61211H2.09547Z" fill="white"/>
</g>
<defs>
<clipPath id="clip0_193_1792">
<rect y="0.345703" width="22" height="16" rx="3" fill="white"/>
</clipPath>
</defs>
</svg>
