<svg width="37" height="36" viewBox="0 0 37 36" fill="none" xmlns="http://www.w3.org/2000/svg">
<g clip-path="url(#clip0_1651_117)">
<path d="M33.2192 16.3636C32.8485 13.0453 31.3605 9.95161 28.9995 7.59059C26.6385 5.22957 23.5448 3.74157 20.2265 3.37091V1.63636C20.2265 0.732624 19.4938 0 18.5901 0C17.6863 0 16.9537 0.732625 16.9537 1.63636V3.37091C13.6354 3.74157 10.5417 5.22957 8.18068 7.59059C5.81966 9.95161 4.33165 13.0453 3.961 16.3636H2.22645C1.32271 16.3636 0.590088 17.0963 0.590088 18C0.590088 18.9037 1.32271 19.6364 2.22645 19.6364H3.961C4.33165 22.9547 5.81966 26.0484 8.18068 28.4094C10.5417 30.7704 13.6354 32.2584 16.9537 32.6291V34.3636C16.9537 35.2674 17.6863 36 18.5901 36C19.4938 36 20.2265 35.2674 20.2265 34.3636V32.6291C23.5448 32.2584 26.6385 30.7704 28.9995 28.4094C31.3605 26.0484 32.8485 22.9547 33.2192 19.6364H34.9537C35.8575 19.6364 36.5901 18.9037 36.5901 18C36.5901 17.0963 35.8575 16.3636 34.9537 16.3636H33.2192ZM18.5901 29.4545C12.2574 29.4545 7.13554 24.3327 7.13554 18C7.13554 11.6673 12.2574 6.54545 18.5901 6.54545C24.9228 6.54545 30.0446 11.6673 30.0446 18C30.0446 24.3327 24.9228 29.4545 18.5901 29.4545Z" fill="#101828"/>
</g>
<defs>
<clipPath id="clip0_1651_117">
<rect width="36" height="36" fill="white" transform="translate(0.590088)"/>
</clipPath>
</defs>
</svg>
