<svg width="23" height="24" viewBox="0 0 23 24" fill="none" xmlns="http://www.w3.org/2000/svg">
<path fill-rule="evenodd" clip-rule="evenodd" d="M10.2046 23.586C4.55206 22.9369 0.162354 18.1358 0.162354 12.3093C0.162354 6.04017 5.24452 0.958008 11.5137 0.958008C17.7829 0.958008 22.865 6.04017 22.865 12.3093C22.865 18.1627 19.1387 17.6813 15.9561 17.2702C14.1204 17.0331 12.4656 16.8193 11.811 17.8578C11.3632 18.5681 11.8472 19.4537 12.4409 20.0473C13.1826 20.7891 13.1826 21.9917 12.4409 22.7335C11.8472 23.3271 11.0387 23.6818 10.2046 23.586ZM10.475 6.6334C10.475 7.57377 9.71272 8.3361 8.77234 8.3361C7.83197 8.3361 7.06964 7.57377 7.06964 6.6334C7.06964 5.69302 7.83197 4.9307 8.77234 4.9307C9.71272 4.9307 10.475 5.69302 10.475 6.6334ZM5.27045 13.4445C6.21083 13.4445 6.97315 12.6821 6.97315 11.7418C6.97315 10.8014 6.21083 10.0391 5.27045 10.0391C4.33008 10.0391 3.56775 10.8014 3.56775 11.7418C3.56775 12.6821 4.33008 13.4445 5.27045 13.4445ZM17.7569 13.4445C18.6973 13.4445 19.4596 12.6821 19.4596 11.7418C19.4596 10.8014 18.6973 10.0391 17.7569 10.0391C16.8165 10.0391 16.0542 10.8014 16.0542 11.7418C16.0542 12.6821 16.8165 13.4445 17.7569 13.4445ZM14.3515 8.33635C15.2919 8.33635 16.0542 7.57403 16.0542 6.63366C16.0542 5.69328 15.2919 4.93096 14.3515 4.93096C13.4111 4.93096 12.6488 5.69328 12.6488 6.63366C12.6488 7.57403 13.4111 8.33635 14.3515 8.33635Z" fill="#DC143B"/>
</svg>
