<svg width="37" height="37" viewBox="0 0 37 37" fill="none" xmlns="http://www.w3.org/2000/svg">
<path d="M32.4466 17.3737H29.8529V10.457C29.8529 9.53982 29.4885 8.66018 28.8399 8.01162C28.1914 7.36306 27.3117 6.9987 26.3945 6.9987H19.4779V4.40495C19.4779 3.25844 19.0224 2.15889 18.2117 1.34818C17.401 0.53748 16.3015 0.0820313 15.1549 0.0820312C14.0084 0.0820313 12.9089 0.53748 12.0982 1.34818C11.2875 2.15889 10.832 3.25844 10.832 4.40495V6.9987H3.91536C2.99816 6.9987 2.11852 7.36306 1.46995 8.01162C0.82139 8.66018 0.457031 9.53982 0.457031 10.457V17.0279H3.05078C5.64453 17.0279 7.71953 19.1029 7.71953 21.6966C7.71953 24.2904 5.64453 26.3654 3.05078 26.3654H0.457031V32.9362C0.457031 33.8534 0.82139 34.733 1.46995 35.3816C2.11852 36.0302 2.99816 36.3945 3.91536 36.3945H10.4862V33.8008C10.4862 31.207 12.5612 29.132 15.1549 29.132C17.7487 29.132 19.8237 31.207 19.8237 33.8008V36.3945H26.3945C27.3117 36.3945 28.1914 36.0302 28.8399 35.3816C29.4885 34.733 29.8529 33.8534 29.8529 32.9362V26.0195H32.4466C33.5931 26.0195 34.6927 25.5641 35.5034 24.7534C36.3141 23.9427 36.7695 22.8431 36.7695 21.6966C36.7695 20.5501 36.3141 19.4506 35.5034 18.6399C34.6927 17.8291 33.5931 17.3737 32.4466 17.3737Z" fill="#DC143B"/>
</svg>
