<svg width="43" height="45" viewBox="0 0 43 45" fill="none" xmlns="http://www.w3.org/2000/svg">
<path d="M38.0716 20.3034H35.4779V13.3867C35.4779 12.4695 35.1135 11.5899 34.4649 10.9413C33.8164 10.2927 32.9367 9.92839 32.0195 9.92839H25.1029V7.33464C25.1029 6.18813 24.6474 5.08858 23.8367 4.27787C23.026 3.46717 21.9265 3.01172 20.7799 3.01172C19.6334 3.01172 18.5339 3.46717 17.7232 4.27787C16.9125 5.08858 16.457 6.18813 16.457 7.33464V9.92839H9.54036C8.62316 9.92839 7.74352 10.2927 7.09495 10.9413C6.44639 11.5899 6.08203 12.4695 6.08203 13.3867V19.9576H8.67578C11.2695 19.9576 13.3445 22.0326 13.3445 24.6263C13.3445 27.2201 11.2695 29.2951 8.67578 29.2951H6.08203V35.8659C6.08203 36.7831 6.44639 37.6627 7.09495 38.3113C7.74352 38.9599 8.62316 39.3242 9.54036 39.3242H16.1112V36.7305C16.1112 34.1367 18.1862 32.0617 20.7799 32.0617C23.3737 32.0617 25.4487 34.1367 25.4487 36.7305V39.3242H32.0195C32.9367 39.3242 33.8164 38.9599 34.4649 38.3113C35.1135 37.6627 35.4779 36.7831 35.4779 35.8659V28.9492H38.0716C39.2181 28.9492 40.3177 28.4938 41.1284 27.6831C41.9391 26.8724 42.3945 25.7728 42.3945 24.6263C42.3945 23.4798 41.9391 22.3802 41.1284 21.5695C40.3177 20.7588 39.2181 20.3034 38.0716 20.3034Z" fill="#DC143B"/>
</svg>
