<svg width="126" height="26" viewBox="0 0 126 26" fill="none" xmlns="http://www.w3.org/2000/svg">
<path d="M3.8917 12.1359C3.22371 11.435 2.11401 11.4084 1.41311 12.0764C0.712216 12.7443 0.685539 13.854 1.35353 14.5549L3.8917 12.1359ZM68.1687 13.3455L66.8711 14.5244L68.1687 13.3455ZM125.592 11.8783C126.146 11.0842 125.951 9.99137 125.157 9.43754L112.215 0.412374C111.421 -0.141455 110.328 0.0533977 109.774 0.84759C109.22 1.64178 109.415 2.73457 110.209 3.2884L121.713 11.3108L113.691 22.8149C113.137 23.609 113.332 24.7018 114.126 25.2557C114.92 25.8095 116.013 25.6146 116.567 24.8204L125.592 11.8783ZM1.35353 14.5549C5.42765 18.8298 12.4297 21.533 20.1246 23.124C27.8953 24.7307 36.6938 25.2668 44.6896 24.9709C52.653 24.6762 59.9881 23.5502 64.7773 21.7332C67.1077 20.849 69.1826 19.6762 70.2486 18.053C70.8227 17.1786 71.1154 16.1523 70.9505 15.0428C70.7911 13.9704 70.2327 13.0103 69.4663 12.1666L66.8711 14.5244C67.3346 15.0346 67.4558 15.38 67.4823 15.5583C67.5033 15.6995 67.4882 15.8688 67.3177 16.1284C66.8944 16.7729 65.7328 17.6205 63.5335 18.4549C59.2633 20.075 52.3666 21.1782 44.56 21.4671C36.7858 21.7548 28.276 21.229 20.8346 19.6904C13.3174 18.1361 7.20334 15.6107 3.8917 12.1359L1.35353 14.5549ZM69.4663 12.1666C62.7718 4.79813 55.363 2.15583 49.7927 2.22518C47.0481 2.25935 44.6011 2.95988 42.9729 4.26102C42.1455 4.92219 41.4764 5.78583 41.1791 6.83837C40.8749 7.91579 41.0068 9.03208 41.5185 10.0698C42.4927 12.0454 44.7942 13.6858 48.1266 14.9495C51.5321 16.2409 56.3239 17.258 62.7645 17.7664C75.6521 18.7837 95.4032 17.7828 124.462 12.6015L123.846 9.14964C94.9449 14.303 75.5178 15.2559 63.0404 14.271C56.7985 13.7783 52.3612 12.8054 49.3698 11.6711C46.3053 10.5089 45.0422 9.28771 44.6632 8.51905C44.4983 8.18461 44.5063 7.95809 44.5535 7.79119C44.6076 7.59939 44.765 7.31718 45.1618 7.00012C45.9818 6.3448 47.5733 5.75935 49.8363 5.73118C54.2814 5.67584 60.7649 7.80338 66.8711 14.5244L69.4663 12.1666Z" fill="#DC143B"/>
</svg>
