<svg width="17" height="11" viewBox="0 0 17 11" fill="none" xmlns="http://www.w3.org/2000/svg">
<path fill-rule="evenodd" clip-rule="evenodd" d="M0.433721 5.39466C0.433721 5.54978 0.495344 5.69855 0.605032 5.80824C0.714721 5.91793 0.863492 5.97955 1.01861 5.97955L14.8139 5.97955L11.1326 9.6597C11.0228 9.76952 10.9611 9.91848 10.9611 10.0738C10.9611 10.2291 11.0228 10.3781 11.1326 10.4879C11.2424 10.5977 11.3914 10.6594 11.5467 10.6594C11.702 10.6594 11.851 10.5977 11.9608 10.4879L16.6399 5.80876C16.6944 5.75443 16.7376 5.68989 16.7671 5.61883C16.7966 5.54777 16.8118 5.47159 16.8118 5.39466C16.8118 5.31772 16.7966 5.24155 16.7671 5.17049C16.7376 5.09943 16.6944 5.03488 16.6399 4.98055L11.9608 0.30141C11.9064 0.247029 11.8419 0.203892 11.7708 0.174461C11.6997 0.14503 11.6236 0.129883 11.5467 0.129883C11.3914 0.129883 11.2424 0.191583 11.1326 0.30141C11.0228 0.411237 10.9611 0.560195 10.9611 0.715514C10.9611 0.870833 11.0228 1.01979 11.1326 1.12962L14.8139 4.80976L1.01861 4.80976C0.863492 4.80976 0.714721 4.87139 0.605032 4.98108C0.495344 5.09076 0.433721 5.23953 0.433721 5.39466Z" fill="white"/>
</svg>
