<svg width="32" height="33" viewBox="0 0 32 33" fill="none" xmlns="http://www.w3.org/2000/svg">
<g clip-path="url(#clip0_1842_6322)">
<g clip-path="url(#clip1_1842_6322)">
<g clip-path="url(#clip2_1842_6322)">
<path fill-rule="evenodd" clip-rule="evenodd" d="M26.3694 5.90662C26.6989 5.76794 27.0596 5.72011 27.4138 5.76811C27.7681 5.81611 28.103 5.95818 28.3837 6.17953C28.6644 6.40089 28.8807 6.69344 29.0099 7.02673C29.1392 7.36002 29.1768 7.72187 29.1188 8.07462L26.0948 26.4173C25.8014 28.1866 23.8601 29.2013 22.2374 28.32C20.8801 27.5826 18.8641 26.4466 17.0508 25.2613C16.1441 24.668 13.3668 22.768 13.7081 21.416C14.0014 20.26 18.6681 15.916 21.3348 13.3333C22.3814 12.3186 21.9041 11.7333 20.6681 12.6666C17.5988 14.984 12.6708 18.508 11.0414 19.5C9.60411 20.3746 8.85477 20.524 7.95877 20.3746C6.32411 20.1026 4.80811 19.6813 3.57077 19.168C1.89877 18.4746 1.98011 16.176 3.56944 15.5066L26.3694 5.90662Z" fill="#43BBFF"/>
</g>
</g>
</g>
<defs>
<clipPath id="clip0_1842_6322">
<rect width="31.8573" height="31.8573" fill="white" transform="translate(0.0712891 0.571289)"/>
</clipPath>
<clipPath id="clip1_1842_6322">
<rect width="31.8573" height="31.8573" fill="white" transform="translate(0.0712891 0.571289)"/>
</clipPath>
<clipPath id="clip2_1842_6322">
<rect width="32" height="32" fill="white"/>
</clipPath>
</defs>
</svg>
