<svg width="31" height="26" viewBox="0 0 31 26" fill="none" xmlns="http://www.w3.org/2000/svg">
<path fill-rule="evenodd" clip-rule="evenodd" d="M27.0767 0.619731C27.4416 0.466157 27.841 0.413191 28.2333 0.466344C28.6256 0.519497 28.9965 0.676826 29.3073 0.921956C29.6182 1.16709 29.8577 1.49106 30.0008 1.86014C30.144 2.22923 30.1856 2.62995 30.1214 3.02058L26.7726 23.3333C26.4477 25.2927 24.2979 26.4163 22.5009 25.4403C20.9978 24.6238 18.7653 23.3658 16.7572 22.0532C15.7532 21.3961 12.6775 19.292 13.0555 17.7948C13.3804 16.5147 18.5483 11.7041 21.5013 8.84405C22.6604 7.7204 22.1318 7.0722 20.7631 8.10578C17.3641 10.672 11.9068 14.5745 10.1025 15.673C8.51075 16.6416 7.68094 16.807 6.6887 16.6416C4.87847 16.3404 3.19964 15.8738 1.82942 15.3054C-0.0221611 14.5376 0.0679077 11.992 1.82794 11.2508L27.0767 0.619731Z" fill="#DC143B"/>
</svg>
