<svg width="25" height="25" viewBox="0 0 25 25" fill="none" xmlns="http://www.w3.org/2000/svg">
<g clip-path="url(#clip0_1603_11207)">
<path fill-rule="evenodd" clip-rule="evenodd" d="M20.6052 4.8118C20.8523 4.70779 21.1228 4.67192 21.3885 4.70792C21.6542 4.74392 21.9053 4.85047 22.1159 5.01649C22.3264 5.1825 22.4886 5.40191 22.5855 5.65188C22.6825 5.90185 22.7107 6.17324 22.6672 6.4378L20.3992 20.1948C20.1792 21.5218 18.7232 22.2828 17.5062 21.6218C16.4882 21.0688 14.9762 20.2168 13.6162 19.3278C12.9362 18.8828 10.8532 17.4578 11.1092 16.4438C11.3292 15.5768 14.8292 12.3188 16.8292 10.3818C17.6142 9.6208 17.2562 9.1818 16.3292 9.8818C14.0272 11.6198 10.3312 14.2628 9.10918 15.0068C8.03118 15.6628 7.46917 15.7748 6.79717 15.6628C5.57118 15.4588 4.43418 15.1428 3.50618 14.7578C2.25218 14.2378 2.31318 12.5138 3.50518 12.0118L20.6052 4.8118Z" fill="#344054"/>
</g>
<defs>
<clipPath id="clip0_1603_11207">
<rect width="24" height="24" fill="white" transform="translate(0.828186 0.381836)"/>
</clipPath>
</defs>
</svg>
