<svg width="114" height="44" viewBox="0 0 114 44" fill="none" xmlns="http://www.w3.org/2000/svg">
<path fill-rule="evenodd" clip-rule="evenodd" d="M22.2748 15.693C23.6117 15.693 24.7999 15.9901 25.8397 16.5842C26.8794 17.1572 27.6858 18.0165 28.2587 19.1624C28.8528 20.287 29.1499 21.645 29.1499 23.2365V33.5809H24.6939V23.8412C24.6939 22.4408 24.3437 21.3692 23.6435 20.6265C22.9433 19.8626 21.9884 19.4807 20.7789 19.4807C19.5482 19.4807 18.5721 19.8626 17.8506 20.6265C17.1504 21.3692 16.8003 22.4408 16.8003 23.8412V33.5809H12.3442V10.0275H16.8003V18.1439C17.3732 17.38 18.1371 16.7858 19.092 16.3614C20.0468 15.9158 21.1078 15.693 22.2748 15.693ZM96.6364 33.581L90.6525 26.0694V33.581H86.1964V10.0276H90.6525V23.4276L96.5727 15.9478H102.366L94.5993 24.7962L102.429 33.581H96.6364ZM82.944 24.0474C82.944 24.684 82.9016 25.2569 82.8167 25.7662H69.9259C70.032 27.0394 70.4776 28.0367 71.2628 28.7581C72.0479 29.4796 73.0133 29.8403 74.1592 29.8403C75.8143 29.8403 76.992 29.1295 77.6922 27.7078H82.4984C81.9891 29.4053 81.013 30.8058 79.5701 31.9092C78.1272 32.9914 76.3554 33.5325 74.2547 33.5325C72.5571 33.5325 71.0293 33.1611 69.6713 32.4185C68.3345 31.6546 67.2841 30.583 66.5202 29.2037C65.7776 27.8245 65.4062 26.233 65.4062 24.4294C65.4062 22.6045 65.7776 21.0025 66.5202 19.6232C67.2629 18.2439 68.3027 17.183 69.6395 16.4403C70.9763 15.6976 72.5147 15.3263 74.2547 15.3263C75.931 15.3263 77.427 15.687 78.7426 16.4085C80.0794 17.1299 81.1085 18.1591 81.83 19.4959C82.5727 20.8115 82.944 22.3287 82.944 24.0474ZM78.3288 22.7743C78.3076 21.6284 77.8938 20.716 77.0875 20.037C76.2811 19.3367 75.2944 18.9866 74.1274 18.9866C73.024 18.9866 72.0903 19.3261 71.3264 20.0052C70.5837 20.663 70.1275 21.586 69.9578 22.7743H78.3288ZM60.3686 16.4892C59.4562 17.0197 58.7135 17.7518 58.1406 18.6854V15.9481H53.6845V33.5814H58.1406V24.7966C58.1406 23.1627 58.4907 22.0168 59.191 21.359C59.9124 20.7012 60.9734 20.3723 62.3739 20.3723H63.5515V15.6935C62.3632 15.6935 61.3023 15.9587 60.3686 16.4892ZM41.2723 33.5806C39.5787 33.5806 38.0545 33.2095 36.6996 32.4673C35.3447 31.7039 34.2757 30.6331 33.4924 29.2548C32.7303 27.8764 32.3492 26.2861 32.3492 24.4836C32.3492 22.6812 32.7408 21.0908 33.5241 19.7125C34.3286 18.3341 35.4188 17.2739 36.7949 16.5317C38.1709 15.7683 39.7058 15.3866 41.3994 15.3866C43.093 15.3866 44.6278 15.7683 46.0038 16.5317C47.3799 17.2739 48.4595 18.3341 49.2428 19.7125C50.0473 21.0908 50.4495 22.6812 50.4495 24.4836C50.4495 26.2861 50.0367 27.8764 49.2111 29.2548C48.4066 30.6331 47.3058 31.7039 45.9086 32.4673C44.5325 33.2095 42.9871 33.5806 41.2723 33.5806ZM39.9614 19.452C40.729 18.594 42.0706 18.594 42.8382 19.452L44.5256 21.3382L46.414 23.049C47.2618 23.817 47.2618 25.1505 46.414 25.9185L44.5256 27.6293L42.8382 29.5155C42.0706 30.3735 40.729 30.3735 39.9614 29.5155L38.274 27.6293L36.3856 25.9185C35.5379 25.1505 35.5379 23.817 36.3856 23.049L38.274 21.3382L39.9614 19.452Z" fill="#DC143B"/>
</svg>
