<svg width="83" height="22" viewBox="0 0 83 22" fill="none" xmlns="http://www.w3.org/2000/svg">
<path fill-rule="evenodd" clip-rule="evenodd" d="M9.39279 5.3125C10.6196 5.3125 11.71 5.58512 12.6642 6.13036C13.6184 6.65612 14.3583 7.44477 14.8841 8.4963C15.4293 9.52835 15.702 10.7746 15.702 12.2351V21.728H11.6127V12.79C11.6127 11.5048 11.2914 10.5215 10.6488 9.83992C10.0062 9.1389 9.1299 8.78839 8.01996 8.78839C6.89054 8.78839 5.99479 9.1389 5.33272 9.83992C4.69012 10.5215 4.36882 11.5048 4.36882 12.79V21.728H0.279541V0.113281H4.36882V7.56161C4.89458 6.86059 5.5956 6.31535 6.47187 5.9259C7.34815 5.51697 8.32178 5.3125 9.39279 5.3125ZM77.6336 21.728L72.1423 14.8347V21.728H68.053V0.113281H72.1423V12.4103L77.5751 5.54618H82.8912L75.7642 13.6663L82.9496 21.728H77.6336ZM65.0681 12.9799C65.0681 13.564 65.0292 14.0898 64.9513 14.5572H53.1216C53.2189 15.7255 53.6279 16.6407 54.3484 17.3028C55.0688 17.9649 55.9549 18.2959 57.0064 18.2959C58.5253 18.2959 59.606 17.6436 60.2486 16.3389H64.6592C64.1918 17.8967 63.2961 19.1819 61.9719 20.1945C60.6478 21.1876 59.0218 21.6842 57.094 21.6842C55.5362 21.6842 54.1342 21.3434 52.8879 20.6619C51.6611 19.9608 50.6972 18.9775 49.9962 17.7117C49.3147 16.446 48.9739 14.9856 48.9739 13.3304C48.9739 11.6557 49.3147 10.1855 49.9962 8.91979C50.6777 7.65406 51.6319 6.68043 52.8587 5.99888C54.0855 5.31734 55.4972 4.97656 57.094 4.97656C58.6324 4.97656 60.0052 5.3076 61.2125 5.96967C62.4393 6.63174 63.3837 7.57617 64.0458 8.80296C64.7273 10.0103 65.0681 11.4026 65.0681 12.9799ZM60.8328 11.8115C60.8133 10.76 60.4336 9.92264 59.6936 9.29951C58.9537 8.65691 58.0482 8.33561 56.9772 8.33561C55.9646 8.33561 55.1078 8.64717 54.4068 9.2703C53.7252 9.87396 53.3066 10.721 53.1508 11.8115H60.8328ZM44.351 6.04175C43.5136 6.52857 42.8321 7.20038 42.3063 8.05718V5.5452H38.217V21.727H42.3063V13.6653C42.3063 12.1659 42.6276 11.1144 43.2702 10.5107C43.9323 9.90709 44.9059 9.60526 46.1911 9.60526H47.2719V5.31152C46.1814 5.31152 45.2078 5.55493 44.351 6.04175ZM26.8266 21.7276C25.2724 21.7276 23.8736 21.3871 22.6303 20.706C21.3869 20.0055 20.4058 19.0228 19.687 17.7579C18.9876 16.493 18.6379 15.0335 18.6379 13.3794C18.6379 11.7254 18.9973 10.2659 19.7162 9.00102C20.4544 7.73615 21.4549 6.76316 22.7177 6.08207C23.9805 5.38152 25.389 5.03125 26.9432 5.03125C28.4974 5.03125 29.9059 5.38152 31.1686 6.08207C32.4314 6.76316 33.4222 7.73615 34.141 9.00102C34.8793 10.2659 35.2484 11.7254 35.2484 13.3794C35.2484 15.0335 34.8696 16.493 34.1119 17.7579C33.3737 19.0228 32.3634 20.0055 31.0812 20.706C29.8184 21.3871 28.4002 21.7276 26.8266 21.7276ZM25.6236 8.76197C26.328 7.97457 27.5591 7.97457 28.2636 8.76197L29.8121 10.4929L31.545 12.0629C32.323 12.7677 32.323 13.9914 31.545 14.6962L29.8121 16.2662L28.2636 17.9972C27.5591 18.7846 26.328 18.7846 25.6236 17.9972L24.075 16.2662L22.3421 14.6962C21.5641 13.9914 21.5641 12.7677 22.3421 12.0629L24.075 10.4929L25.6236 8.76197Z" fill="#DC143B"/>
</svg>
