<svg width="143" height="112" viewBox="0 0 143 112" fill="none" xmlns="http://www.w3.org/2000/svg">
<path fill-rule="evenodd" clip-rule="evenodd" d="M15.6292 88.1841C17.9559 90.5108 20.7544 91.6742 24.0245 91.6742H119.156C122.43 91.6782 125.23 90.5148 127.557 88.1841C129.884 85.8534 131.047 83.053 131.047 79.7828V14.38C131.051 11.1138 129.888 8.31538 127.557 5.98466C125.226 3.65395 122.426 2.48859 119.156 2.48859H24.0245C20.7583 2.49255 17.9599 3.65791 15.6292 5.98466C13.2984 8.31142 12.1331 11.1099 12.1331 14.38V79.7828C12.137 83.0569 13.3024 85.8573 15.6292 88.1841ZM12.1331 103.566C12.133 106.849 14.795 109.511 18.0788 109.511H125.102C128.385 109.511 131.047 106.849 131.047 103.566C131.047 100.282 128.385 97.6199 125.102 97.6199H18.0788C14.795 97.6199 12.1331 100.282 12.1331 103.566ZM27.0501 11.3558C23.7364 11.3558 21.0501 14.0421 21.0501 17.3558V42.7414C21.0501 46.0551 23.7364 48.7414 27.0501 48.7414H116.13C119.444 48.7414 122.13 46.0551 122.13 42.7414V17.3558C122.13 14.0421 119.444 11.3558 116.13 11.3558H27.0501ZM21.0501 61.4212C21.0501 58.3043 23.5768 55.7776 26.6936 55.7776H40.5191C43.6359 55.7776 46.1626 58.3043 46.1626 61.4212C46.1626 64.538 43.6359 67.0647 40.5191 67.0647H26.6936C23.5768 67.0647 21.0501 64.538 21.0501 61.4212ZM56.0135 55.7776C52.8967 55.7776 50.37 58.3043 50.37 61.4212C50.37 64.538 52.8967 67.0647 56.0135 67.0647H116.253C119.37 67.0647 121.897 64.538 121.897 61.4212C121.897 58.3043 119.37 55.7776 116.253 55.7776H56.0135Z" fill="#DC143B"/>
</svg>
