<svg width="141" height="112" viewBox="0 0 141 112" fill="none" xmlns="http://www.w3.org/2000/svg">
<path fill-rule="evenodd" clip-rule="evenodd" d="M14.6291 88.1841C16.9559 90.5109 19.7543 91.6743 23.0245 91.6743H118.156C121.43 91.6782 124.23 90.5148 126.557 88.1841C128.884 85.8534 130.047 83.053 130.047 79.7828V14.38C130.051 11.1139 128.888 8.31541 126.557 5.98469C124.226 3.65398 121.426 2.48862 118.156 2.48862H23.0245C19.7583 2.49258 16.9599 3.65794 14.6291 5.98469C12.2984 8.31145 11.1331 11.1099 11.1331 14.38V79.7828C11.137 83.0569 12.3024 85.8574 14.6291 88.1841ZM11.1331 103.566C11.1331 106.849 13.795 109.511 17.0788 109.511H124.102C127.385 109.511 130.047 106.849 130.047 103.566C130.047 100.282 127.385 97.62 124.102 97.62H17.0788C13.795 97.62 11.1331 100.282 11.1331 103.566ZM43.3806 46.9879L54.1582 38.0075C54.8632 37.4106 55.3038 36.5594 55.3839 35.6391C55.4641 34.7189 55.1773 33.8043 54.5861 33.0946C53.9949 32.3848 53.1472 31.9375 52.2276 31.85C51.3081 31.7625 50.3912 32.0419 49.6768 32.6274L35.6722 44.2979C35.2778 44.6264 34.9605 45.0377 34.7427 45.5026C34.5249 45.9675 34.412 46.4745 34.412 46.9879C34.412 47.5012 34.5249 48.0083 34.7427 48.4732C34.9605 48.9381 35.2778 49.3494 35.6722 49.6779L49.6768 61.3484C50.0295 61.647 50.4378 61.8728 50.8782 62.0128C51.3186 62.1528 51.7824 62.2043 52.2428 62.1642C52.7032 62.1241 53.1511 61.9932 53.5606 61.7792C53.9702 61.5651 54.3334 61.2721 54.6291 60.917C54.9249 60.562 55.1474 60.1518 55.2839 59.7103C55.4204 59.2688 55.4682 58.8046 55.4244 58.3446C55.3806 57.8845 55.2462 57.4377 55.0289 57.0299C54.8116 56.622 54.5157 56.2612 54.1582 55.9683L43.3806 46.9879ZM91.5036 32.6274L105.508 44.2979C105.903 44.6264 106.22 45.0377 106.438 45.5026C106.656 45.9675 106.768 46.4745 106.768 46.9879C106.768 47.5012 106.656 48.0083 106.438 48.4732C106.22 48.9381 105.903 49.3494 105.508 49.6779L91.5036 61.3484C91.1509 61.647 90.7426 61.8728 90.3022 62.0128C89.8618 62.1528 89.398 62.2043 88.9376 62.1642C88.4772 62.1241 88.0294 61.9932 87.6198 61.7792C87.2102 61.5651 86.8471 61.2721 86.5513 60.917C86.2555 60.562 86.033 60.1518 85.8965 59.7103C85.76 59.2688 85.7123 58.8046 85.756 58.3446C85.7998 57.8845 85.9342 57.4377 86.1515 57.0299C86.3689 56.622 86.6648 56.2612 87.0222 55.9683L97.7999 46.9879L87.0222 38.0075C86.6648 37.7146 86.3689 37.3538 86.1515 36.9459C85.9342 36.5381 85.7998 36.0912 85.756 35.6312C85.7123 35.1711 85.76 34.707 85.8965 34.2655C86.033 33.8239 86.2555 33.4138 86.5513 33.0587C86.8471 32.7037 87.2102 32.4106 87.6198 32.1966C88.0294 31.9825 88.4772 31.8517 88.9376 31.8116C89.398 31.7715 89.8618 31.8229 90.3022 31.963C90.7426 32.103 91.1509 32.3288 91.5036 32.6274ZM79.7723 17.8144C80.2317 17.7942 80.6906 17.8647 81.1228 18.0218C81.555 18.1789 81.9521 18.4195 82.2913 18.73C82.6305 19.0405 82.9052 19.4148 83.0998 19.8315C83.2943 20.2482 83.4048 20.6992 83.4251 21.1586C83.4453 21.618 83.3748 22.0769 83.2176 22.5091L64.5449 73.8591C64.2993 74.5347 63.8517 75.1183 63.2629 75.5306C62.6741 75.943 61.9727 76.1641 61.2539 76.164C60.8456 76.1646 60.4406 76.0924 60.0576 75.951C59.1854 75.6339 58.4748 74.9834 58.082 74.1425C57.6891 73.3016 57.6463 72.3391 57.9628 71.4666L76.6355 20.1167C76.7925 19.6845 77.0332 19.2874 77.3437 18.9482C77.6542 18.609 78.0285 18.3342 78.4452 18.1397C78.8619 17.9452 79.3128 17.8346 79.7723 17.8144Z" fill="#DC143B"/>
</svg>
