<svg width="161" height="112" viewBox="0 0 161 112" fill="none" xmlns="http://www.w3.org/2000/svg">
<path fill-rule="evenodd" clip-rule="evenodd" d="M13.8334 105.335C16.609 108.119 19.9473 109.511 23.8483 109.511H137.332C141.238 109.516 144.578 108.124 147.354 105.335C150.13 102.546 151.518 99.1951 151.518 95.282V17.0206C151.522 13.1123 150.134 9.76367 147.354 6.97472C144.574 4.18577 141.233 2.79129 137.332 2.79129H23.8483C19.952 2.79603 16.6137 4.19051 13.8334 6.97472C11.053 9.75892 9.66284 13.1076 9.66284 17.0206V95.282C9.66757 99.1998 11.0577 102.551 13.8334 105.335ZM26.3 13.4018C22.9863 13.4018 20.3 16.0881 20.3 19.4018V52.1376C20.3 55.4513 22.9863 58.1376 26.3 58.1376H134.88C138.194 58.1376 140.88 55.4513 140.88 52.1376V19.4018C140.88 16.0881 138.194 13.4018 134.88 13.4018H26.3ZM20.3 72.5573C20.3 69.2435 22.9863 66.5573 26.3 66.5573H44.2571C47.5708 66.5573 50.2571 69.2435 50.2571 72.5573V74.0634C50.2571 77.3771 47.5708 80.0634 44.2571 80.0634H26.3C22.9863 80.0634 20.3 77.3771 20.3 74.0634V72.5573ZM61.2764 66.5573C57.9627 66.5573 55.2764 69.2435 55.2764 72.5573V74.0634C55.2764 77.3771 57.9627 80.0634 61.2764 80.0634H134.602C137.915 80.0634 140.602 77.3771 140.602 74.0634V72.5573C140.602 69.2435 137.915 66.5573 134.602 66.5573H61.2764Z" fill="#DC143B"/>
</svg>
