<svg width="113" height="114" viewBox="0 0 113 114" fill="none" xmlns="http://www.w3.org/2000/svg">
<path fill-rule="evenodd" clip-rule="evenodd" d="M27.4392 106.52C35.8431 111.124 45.2974 113.426 55.8022 113.426C66.4383 113.426 76.024 111.124 84.5592 106.52C93.2256 101.785 100.054 95.1431 105.044 86.5938C110.165 78.0445 112.725 68.1799 112.725 57C112.725 45.8201 110.23 35.9555 105.241 27.4062C100.382 18.8569 93.6852 12.2805 85.15 7.67698C76.6149 2.94197 67.0949 0.574463 56.5901 0.574463C46.0853 0.574463 36.5653 2.94197 28.0301 7.67698C19.4949 12.2805 12.7325 18.8569 7.74267 27.4062C2.88419 35.9555 0.454956 45.8201 0.454956 57C0.454956 68.1799 2.81854 78.0445 7.54571 86.5938C12.4042 95.1431 19.0354 101.785 27.4392 106.52ZM65.5146 25.7904C60.7534 20.4684 52.4324 20.4684 47.6712 25.7904L37.2044 37.4899L25.4916 48.1012C20.2331 52.8652 20.2331 61.1363 25.4916 65.9003L37.2044 76.5116L47.6712 88.2111C52.4324 93.5331 60.7534 93.5331 65.5146 88.2111L75.9813 76.5116L87.6942 65.9003C92.9526 61.1363 92.9526 52.8652 87.6942 48.1012L75.9813 37.4899L65.5146 25.7904Z" fill="#DC143B"/>
</svg>
