<svg width="122" height="114" viewBox="0 0 122 114" fill="none" xmlns="http://www.w3.org/2000/svg">
<path d="M7.95018 99.7443L15.6904 102.979V50.8194L1.65406 84.6682C-0.714198 90.56 2.11616 97.3182 7.95018 99.7443ZM120.587 78.3721L91.9369 9.2304C91.065 7.16398 89.6142 5.39379 87.7591 4.1332C85.9041 2.8726 83.7241 2.1754 81.4818 2.12561C79.98 2.12561 78.4204 2.35666 76.9186 2.99205L34.3476 20.6096C31.5372 21.784 29.3046 24.0213 28.1361 26.8342C26.9677 29.6472 26.958 32.8079 28.1093 35.6279L56.7595 104.77C57.9326 107.581 60.1698 109.815 62.9832 110.983C65.7966 112.152 68.9579 112.161 71.7777 111.008L114.291 93.3904C117.117 92.2331 119.368 90.001 120.548 87.1848C121.729 84.3685 121.743 81.1987 120.587 78.3721ZM38.8531 36.7831C35.6762 36.7831 33.0769 34.1838 33.0769 31.0069C33.0769 27.8299 35.6762 25.2306 38.8531 25.2306C42.0301 25.2306 44.6294 27.8299 44.6294 31.0069C44.6294 34.1838 42.0301 36.7831 38.8531 36.7831ZM27.3006 100.322C27.3006 106.676 32.4992 111.874 38.8531 111.874H47.2287L27.3006 63.7004V100.322Z" fill="#DC143B"/>
</svg>
