<svg width="114" height="114" viewBox="0 0 114 114" fill="none" xmlns="http://www.w3.org/2000/svg">
<path fill-rule="evenodd" clip-rule="evenodd" d="M76.1326 79.8117C75.9039 80.3647 75.6817 80.9204 75.4658 81.4786C63.5395 85.4638 50.6409 85.4638 38.7146 81.4786C38.499 80.9203 38.2767 80.3646 38.0478 79.8117C37.4144 78.2782 37.0944 77.5047 36.541 76.798C35.9942 76.0846 35.0341 75.3645 33.1139 73.931C26.3903 68.897 21.4217 61.8746 18.9124 53.859C16.403 45.8434 16.4801 37.2414 19.1329 29.2721C21.7856 21.3028 26.8794 14.3706 33.6921 9.4581C40.5049 4.54559 48.691 1.90198 57.0902 1.90198C65.4894 1.90198 73.6755 4.54559 80.4883 9.4581C87.301 14.3706 92.3948 21.3028 95.0475 29.2721C97.7003 37.2414 97.7774 45.8434 95.268 53.859C92.7587 61.8746 87.7901 68.897 81.0665 73.931C79.1463 75.3645 78.1862 76.0846 77.6394 76.798C77.086 77.5047 76.7727 78.2715 76.1326 79.8117ZM42.7551 96.3471C43.3352 99.8609 43.6619 103.421 43.7419 107.002C43.7486 107.475 43.8844 107.938 44.1347 108.339C44.385 108.741 44.7402 109.067 45.162 109.282C48.8656 111.134 52.9494 112.098 57.0902 112.098C61.231 112.098 65.3148 111.134 69.0184 109.282C69.4402 109.067 69.7954 108.741 70.0457 108.339C70.296 107.938 70.4318 107.475 70.4385 107.002C70.5185 103.421 70.8452 99.8675 71.4253 96.3471C61.9671 98.2873 52.2133 98.2873 42.7551 96.3471Z" fill="#DC143B"/>
</svg>
