<svg width="114" height="114" viewBox="0 0 114 114" fill="none" xmlns="http://www.w3.org/2000/svg">
<path d="M106.758 43.7728C105.528 43.1727 104.579 42.0135 104.579 40.6444V8.06679C104.579 6.53998 103.972 5.0757 102.893 3.99608C101.813 2.91646 100.349 2.30994 98.8219 2.30994H94.3077C93.512 2.30994 92.7537 2.62899 92.173 3.17288C81.2572 13.3962 62.2975 19.4307 49.3353 22.563C47.975 22.8918 47.0102 24.102 47.0102 25.5015V82.7418C47.0102 84.1413 47.975 85.3515 49.3354 85.6802C62.2975 88.8126 81.2572 94.8471 92.173 105.07C92.7537 105.614 93.512 105.933 94.3077 105.933H98.8219C100.349 105.933 101.813 105.327 102.893 104.247C103.972 103.168 104.579 101.703 104.579 100.176V67.5989C104.579 66.2298 105.528 65.0706 106.758 64.4705C108.334 63.702 109.723 62.5788 110.81 61.1769C112.376 59.1582 113.225 56.6762 113.225 54.1216C113.225 51.5671 112.376 49.0851 110.81 47.0663C109.723 45.6645 108.334 44.5413 106.758 43.7728ZM12.469 25.3374C9.41541 25.3374 6.48685 26.5504 4.32761 28.7096C2.16837 30.8689 0.955322 33.7974 0.955322 36.8511L0.955322 71.3922C0.955322 74.4458 2.16837 77.3744 4.32761 79.5336C6.48685 81.6929 9.41541 82.9059 12.469 82.9059H15.7665C17.1965 82.9059 18.4278 83.9153 18.7082 85.3176L23.5004 109.279C23.7809 110.681 25.0121 111.69 26.4422 111.69H32.4965C34.1533 111.69 35.4965 110.347 35.4965 108.69V28.3374C35.4965 26.6805 34.1533 25.3374 32.4965 25.3374H12.469Z" fill="#DC143B"/>
</svg>
