<svg width="114" height="114" viewBox="0 0 114 114" fill="none" xmlns="http://www.w3.org/2000/svg">
<path d="M102.201 106.978H28.1671C23.0765 106.978 18.1945 105.135 14.5949 101.855C10.9954 98.5744 8.97314 94.1251 8.97314 89.4859V22.0152C8.97314 18.0387 10.7065 14.225 13.7918 11.4132C16.8771 8.60139 21.0618 7.02173 25.4251 7.02173H102.201C103.655 7.02173 105.05 7.54828 106.079 8.48556C107.107 9.42283 107.685 10.694 107.685 12.0196V101.98C107.685 103.306 107.107 104.577 106.079 105.514C105.05 106.452 103.655 106.978 102.201 106.978ZM96.7169 96.9826V81.9891H28.1671C25.9854 81.9891 23.8931 82.7789 22.3504 84.1849C20.8078 85.5908 19.9411 87.4976 19.9411 89.4859C19.9411 91.4741 20.8078 93.3809 22.3504 94.7868C23.8931 96.1928 25.9854 96.9826 28.1671 96.9826H96.7169Z" fill="#DC143B"/>
</svg>
