<svg width="146" height="112" viewBox="0 0 146 112" fill="none" xmlns="http://www.w3.org/2000/svg">
<path d="M25.2733 103.817C21.9859 103.817 19.1727 102.647 16.8336 100.308C14.4946 97.9692 13.3231 95.154 13.3191 91.8626V20.1374C13.3191 16.85 14.4906 14.0368 16.8336 11.6978C19.1766 9.35872 21.9899 8.18721 25.2733 8.18323H120.907C124.194 8.18323 127.009 9.35474 129.353 11.6978C131.696 14.0408 132.865 16.854 132.861 20.1374V91.8626C132.861 95.15 131.692 97.9652 129.353 100.308C127.013 102.651 124.198 103.821 120.907 103.817H25.2733ZM25.2733 88.8626C25.2733 90.5195 26.6164 91.8626 28.2733 91.8626H85.0328C86.6897 91.8626 88.0328 90.5195 88.0328 88.8626V73.9428C88.0328 72.2859 86.6897 70.9428 85.0328 70.9428H28.2733C26.6164 70.9428 25.2733 72.2859 25.2733 73.9428V88.8626ZM99.987 88.8626C99.987 90.5195 101.33 91.8626 102.987 91.8626H117.907C119.564 91.8626 120.907 90.5195 120.907 88.8626V41.0687C120.907 39.4119 119.564 38.0687 117.907 38.0687H102.987C101.33 38.0687 99.987 39.4119 99.987 41.0687V88.8626ZM25.2733 55.9886C25.2733 57.6454 26.6164 58.9886 28.2733 58.9886H85.0328C86.6897 58.9886 88.0328 57.6454 88.0328 55.9886V41.0687C88.0328 39.4119 86.6897 38.0687 85.0328 38.0687H28.2733C26.6164 38.0687 25.2733 39.4119 25.2733 41.0687V55.9886Z" fill="#DC143B"/>
</svg>
