<svg width="153" height="122" viewBox="0 0 153 122" fill="none" xmlns="http://www.w3.org/2000/svg">
<path fill-rule="evenodd" clip-rule="evenodd" d="M28.1374 108.817C24.85 108.817 22.0368 107.647 19.6978 105.308C17.3587 102.969 16.1872 100.154 16.1832 96.8625V25.1373C16.1832 21.8499 17.3547 19.0367 19.6978 16.6976C22.0408 14.3586 24.854 13.1871 28.1374 13.1831H123.771C127.058 13.1831 129.874 14.3546 132.217 16.6976C134.56 19.0407 135.729 21.8539 135.725 25.1373V96.8625C135.725 100.15 134.556 102.965 132.217 105.308C129.878 107.651 127.062 108.821 123.771 108.817H28.1374ZM102.851 93.8625C102.851 95.5193 104.194 96.8625 105.851 96.8625H120.771C122.428 96.8625 123.771 95.5193 123.771 93.8625V46.0686C123.771 44.4117 122.428 43.0686 120.771 43.0686H105.851C104.194 43.0686 102.851 44.4117 102.851 46.0686V93.8625ZM28.2501 45.7515C28.2501 44.0946 29.5933 42.7515 31.2501 42.7515H92.536C94.1929 42.7515 95.536 44.0946 95.536 45.7515V93.647C95.536 95.3038 94.1929 96.647 92.536 96.647H31.2501C29.5933 96.647 28.2501 95.3038 28.2501 93.647V45.7515ZM41.1039 49.8404C39.0123 48.498 36.2286 49.1052 34.8861 51.1968C33.5437 53.2883 34.151 56.0721 36.2426 57.4145L57.6384 71.147C60.1068 72.7313 63.2722 72.7313 65.7406 71.147L87.1364 57.4145C89.2279 56.0721 89.8352 53.2883 88.4928 51.1968C87.1504 49.1052 84.3666 48.498 82.2751 49.8404L61.6895 63.0528L41.1039 49.8404Z" fill="#DC143B"/>
</svg>
