<svg width="121" height="114" viewBox="0 0 121 114" fill="none" xmlns="http://www.w3.org/2000/svg">
<path fill-rule="evenodd" clip-rule="evenodd" d="M12.7734 104.817C9.48601 104.817 6.67279 103.647 4.33375 101.308C1.99471 98.9691 0.823199 96.1539 0.819214 92.8625V21.1373C0.819214 17.8499 1.99073 15.0367 4.33375 12.6976C6.67677 10.3586 9.48999 9.18709 12.7734 9.18311H108.407C111.694 9.18311 114.51 10.3546 116.853 12.6976C119.196 15.0407 120.365 17.8539 120.361 21.1373V92.8625C120.361 96.1499 119.192 98.9651 116.853 101.308C114.514 103.651 111.698 104.821 108.407 104.817H12.7734ZM87.4872 89.8625C87.4872 91.5193 88.8303 92.8625 90.4872 92.8625H105.407C107.064 92.8625 108.407 91.5193 108.407 89.8625V42.0686C108.407 40.4117 107.064 39.0686 105.407 39.0686H90.4872C88.8303 39.0686 87.4872 40.4117 87.4872 42.0686V89.8625ZM12.8861 41.7515C12.8861 40.0946 14.2293 38.7515 15.8861 38.7515H77.172C78.8288 38.7515 80.172 40.0946 80.172 41.7515V89.647C80.172 91.3038 78.8288 92.647 77.172 92.647H15.8861C14.2293 92.647 12.8861 91.3038 12.8861 89.647V41.7515ZM30.9036 65.103C32.2218 66.4739 33.9222 67.1594 36.0049 67.1594C38.114 67.1594 39.8276 66.4739 41.1458 65.103C42.464 63.7321 43.123 61.8603 43.123 59.4876C43.123 57.1413 42.464 55.2827 41.1458 53.9118C39.8276 52.5145 38.114 51.8159 36.0049 51.8159C34.6341 51.8159 33.4082 52.1323 32.3273 52.765C31.2727 53.3714 30.4423 54.2545 29.8359 55.4145C29.2296 56.5745 28.9264 57.9322 28.9264 59.4876C28.9264 61.8603 29.5855 63.7321 30.9036 65.103ZM58.0711 52.1718H52.3766L33.4741 79.8533H39.1685L58.0711 52.1718ZM37.7054 62.4535C37.2836 63.0862 36.7168 63.4026 36.0049 63.4026C35.3195 63.4026 34.7527 63.0862 34.3045 62.4535C33.8827 61.7944 33.6718 60.8058 33.6718 59.4876C33.6718 58.1695 33.8827 57.194 34.3045 56.5613C34.7527 55.9022 35.3195 55.5727 36.0049 55.5727C36.7168 55.5727 37.2836 55.8891 37.7054 56.5218C38.1272 57.1545 38.3381 58.1431 38.3381 59.4876C38.3381 60.8322 38.1272 61.8208 37.7054 62.4535ZM50.3993 78.1529C51.7175 79.5238 53.4311 80.2092 55.5402 80.2092C57.6492 80.2092 59.3629 79.5238 60.681 78.1529C61.9992 76.782 62.6583 74.9102 62.6583 72.5375C62.6583 70.1912 61.9992 68.3325 60.681 66.9617C59.3629 65.5644 57.6492 64.8658 55.5402 64.8658C53.4575 64.8658 51.757 65.5644 50.4389 66.9617C49.1207 68.3325 48.4616 70.1912 48.4616 72.5375C48.4616 74.9102 49.1075 76.782 50.3993 78.1529ZM57.2406 75.5034C56.8188 76.1361 56.252 76.4525 55.5402 76.4525C54.8284 76.4525 54.2616 76.1361 53.8397 75.5034C53.4179 74.8707 53.207 73.882 53.207 72.5375C53.207 71.193 53.4179 70.2043 53.8397 69.5716C54.2616 68.9389 54.8284 68.6225 55.5402 68.6225C56.252 68.6225 56.8188 68.9389 57.2406 69.5716C57.6624 70.2043 57.8733 71.193 57.8733 72.5375C57.8733 73.882 57.6624 74.8707 57.2406 75.5034Z" fill="#DC143B"/>
</svg>
