<svg width="113" height="114" viewBox="0 0 113 114" fill="none" xmlns="http://www.w3.org/2000/svg">
<path d="M56.5901 92.8627H23.7275C22.0706 92.8627 20.7275 91.5195 20.7275 89.8627V71.9542C20.7275 70.2974 22.0706 68.9542 23.7275 68.9542H56.5901M110.384 68.9542V57.2971C110.384 57.0995 110.365 56.9024 110.326 56.7087L104.889 29.5261C104.609 28.1238 103.378 27.1144 101.948 27.1144H11.2327C9.80262 27.1144 8.57138 28.1238 8.29092 29.5261L2.8544 56.7087C2.81566 56.9024 2.79614 57.0995 2.79614 57.2971V65.9657C2.79614 67.6162 4.13416 68.9542 5.7847 68.9542C7.43523 68.9542 8.77325 70.2922 8.77325 71.9428V101.817C8.77325 103.474 10.1164 104.817 11.7733 104.817H65.5444C67.2012 104.817 68.5444 103.474 68.5444 101.817V71.9542C68.5444 70.2974 69.8875 68.9542 71.5444 68.9542H89.4528C91.1097 68.9542 92.4528 70.2974 92.4528 71.9542V101.817C92.4528 103.474 93.796 104.817 95.4528 104.817H101.407C103.064 104.817 104.407 103.474 104.407 101.817V68.9542M104.407 12.1831C104.407 10.5263 103.064 9.18311 101.407 9.18311H11.7733C10.1164 9.18311 8.77325 10.5263 8.77325 12.1831V18.1373C8.77325 19.7942 10.1164 21.1373 11.7733 21.1373H101.407C103.064 21.1373 104.407 19.7942 104.407 18.1373V12.1831Z" fill="#DC143B"/>
</svg>
