<svg width="113" height="114" viewBox="0 0 113 114" fill="none" xmlns="http://www.w3.org/2000/svg">
<path fill-rule="evenodd" clip-rule="evenodd" d="M41.534 5.1101C31.0906 8.14783 21.8062 14.2646 14.8935 22.6614C7.98087 31.0582 3.76134 41.3447 2.78613 52.1771H27.481C28.9127 35.6936 33.6918 19.6755 41.5263 5.10238L41.534 5.1101ZM27.481 61.8235H2.78613C3.7593 72.6563 7.97703 82.9437 14.8883 91.3419C21.7997 99.7401 31.0832 105.859 41.5263 108.898C33.6918 94.3251 28.9127 78.3069 27.481 61.8235ZM53.9046 110.959C44.5421 96.1223 38.8052 79.2895 37.1584 61.8235H76.0143C74.3674 79.2895 68.6305 96.1223 59.268 110.959C57.4813 111.045 55.6913 111.045 53.9046 110.959ZM71.6541 108.89C82.096 105.851 91.3787 99.7341 98.2899 91.3374C105.201 82.9407 109.42 72.6549 110.394 61.8235H85.6993C84.2677 78.3069 79.4885 94.3251 71.6541 108.898V108.89ZM85.6993 52.1771H110.394C109.421 41.3443 105.203 31.0568 98.292 22.6586C91.3807 14.2604 82.0971 8.14191 71.6541 5.10238C79.4887 19.6754 84.2679 35.6936 85.6993 52.1771ZM53.9046 3.0419C55.6939 2.95429 57.4864 2.95429 59.2757 3.0419C68.6355 17.879 74.3698 34.7117 76.0143 52.1771H37.1661C38.8407 34.6051 44.59 17.7585 53.9046 3.0419Z" fill="#DC143B"/>
</svg>
