<svg width="114" height="114" viewBox="0 0 114 114" fill="none" xmlns="http://www.w3.org/2000/svg">
<path d="M57.2012 8.91956C63.594 8.91956 69.7249 11.4591 74.2453 15.9795C78.7657 20.4998 81.3052 26.6308 81.3052 33.0236C81.3052 39.4163 78.7657 45.5473 74.2453 50.0677C69.7249 54.588 63.594 57.1276 57.2012 57.1276C50.8084 57.1276 44.6774 54.588 40.1571 50.0677C35.6367 45.5473 33.0972 39.4163 33.0972 33.0236C33.0972 26.6308 35.6367 20.4998 40.1571 15.9795C44.6774 11.4591 50.8084 8.91956 57.2012 8.91956ZM57.2012 69.1796C83.8361 69.1796 105.409 79.9661 105.409 93.2836C105.409 99.911 100.037 105.336 93.4092 105.336H20.9932C14.3657 105.336 8.99316 99.911 8.99316 93.2836C8.99316 79.9661 30.5662 69.1796 57.2012 69.1796Z" fill="#DC143B"/>
</svg>
