<svg width="114" height="114" viewBox="0 0 114 114" fill="none" xmlns="http://www.w3.org/2000/svg">
<path d="M83.8163 110.453C89.7122 110.453 94.5068 105.658 94.5068 99.762V14.238C94.5068 8.34224 89.7122 3.54755 83.8163 3.54755H30.3638C24.468 3.54755 19.6733 8.34224 19.6733 14.238V99.762C19.6733 105.658 24.468 110.453 30.3638 110.453H83.8163Z" fill="#DC143B"/>
<path fill-rule="evenodd" clip-rule="evenodd" d="M45.0874 18.6799C45.0874 16.1946 47.1021 14.1799 49.5874 14.1799H64.593C67.0783 14.1799 69.093 16.1946 69.093 18.6799C69.093 21.1652 67.0783 23.1799 64.593 23.1799H49.5874C47.1021 23.1799 45.0874 21.1652 45.0874 18.6799Z" fill="white"/>
</svg>
