<svg width="114" height="114" viewBox="0 0 114 114" fill="none" xmlns="http://www.w3.org/2000/svg">
<path d="M16.2614 70.0875C13.3027 60.8573 13.5588 50.897 16.988 41.8312L16.9904 41.825L4.5886 37.1318L4.58328 37.1458C3.07279 41.1405 2.0328 45.2678 1.46541 49.4466C0.347104 57.6828 1.06467 66.1192 3.63412 74.1351C7.50876 86.2227 15.3657 96.6403 25.9229 103.688C36.4801 110.735 49.1142 113.997 61.7635 112.94C74.4129 111.883 86.3307 106.571 95.5721 97.8691C104.814 89.1674 110.833 77.5906 112.648 65.0276C114.463 52.4647 111.967 39.6574 105.567 28.6956C99.1668 17.7339 89.2404 9.26492 77.4075 4.67069C69.5606 1.62404 61.1826 0.400648 52.8941 1.02183C48.6838 1.33737 44.4965 2.12887 40.4137 3.39911L44.353 16.0606L44.3594 16.0586C53.6149 13.1806 63.5726 13.5236 72.6082 17.0318C81.6459 20.5408 89.2276 27.0092 94.116 35.3816C99.0043 43.754 100.911 53.536 99.5244 63.1314C98.138 72.7267 93.5404 81.5689 86.482 88.2151C79.4235 94.8613 70.3209 98.919 60.6596 99.7262C50.9982 100.533 41.3485 98.0422 33.2851 92.6594C25.2218 87.2765 19.2207 79.3198 16.2614 70.0875Z" fill="#DC143B"/>
<path d="M23.6215 27.8174C28.2782 27.8174 32.0532 24.0424 32.0532 19.3857C32.0532 14.729 28.2782 10.954 23.6215 10.954C18.9648 10.954 15.1897 14.729 15.1897 19.3857C15.1897 24.0424 18.9648 27.8174 23.6215 27.8174Z" fill="#DC143B"/>
<path fill-rule="evenodd" clip-rule="evenodd" d="M44.1302 79.8652C48.0105 81.9907 52.3759 83.0535 57.2263 83.0535C62.1374 83.0535 66.5634 81.9907 70.5043 79.8652C74.5059 77.6788 77.6587 74.6119 79.9627 70.6644C82.3273 66.7169 83.5095 62.1621 83.5095 57C83.5095 51.8379 82.3576 47.2831 80.0536 43.3356C77.8103 39.388 74.7182 36.3515 70.7772 34.2259C66.8362 32.0396 62.4405 30.9465 57.5901 30.9465C52.7397 30.9465 48.344 32.0396 44.403 34.2259C40.462 36.3515 37.3396 39.388 35.0356 43.3356C32.7923 47.2831 31.6707 51.8379 31.6707 57C31.6707 62.1621 32.762 66.7169 34.9447 70.6644C37.188 74.6119 40.2498 77.6788 44.1302 79.8652ZM61.7108 42.5895C59.5124 40.1321 55.6704 40.1321 53.4719 42.5895L48.6391 47.9915L43.2309 52.8911C40.8029 55.0908 40.8029 58.9099 43.2309 61.1095L48.6391 66.0091L53.4719 71.4112C55.6704 73.8685 59.5124 73.8685 61.7108 71.4112L66.5437 66.0091L71.9519 61.1095C74.3799 58.9099 74.3799 55.0908 71.9519 52.8911L66.5437 47.9915L61.7108 42.5895Z" fill="#DC143B"/>
</svg>
