<svg width="125" height="114" viewBox="0 0 125 114" fill="none" xmlns="http://www.w3.org/2000/svg">
<path d="M124.025 23.6505V90.3495C124.025 92.8766 123.021 95.3002 121.234 97.0871C119.447 98.8741 117.024 99.8779 114.497 99.8779H9.68383C7.15673 99.8779 4.73314 98.8741 2.94621 97.0871C1.15928 95.3002 0.155396 92.8766 0.155396 90.3495V23.6505C0.155396 21.1234 1.15928 18.6998 2.94621 16.9129C4.73314 15.1259 7.15673 14.1221 9.68383 14.1221H114.497C117.024 14.1221 119.447 15.1259 121.234 16.9129C123.021 18.6998 124.025 21.1234 124.025 23.6505ZM83.5292 57C83.529 56.2345 83.3443 55.4803 82.9908 54.8013C82.6373 54.1223 82.1254 53.5385 81.4984 53.0993L57.6774 36.4245C56.9635 35.9245 56.1262 35.6298 55.2566 35.5726C54.3869 35.5154 53.5182 35.6979 52.7451 36.1001C51.9719 36.5024 51.3239 37.109 50.8715 37.854C50.4192 38.5989 50.1799 39.4537 50.1797 40.3252V73.6748C50.1799 74.5463 50.4192 75.4011 50.8715 76.146C51.3239 76.891 51.9719 77.4976 52.7451 77.8999C53.5182 78.3021 54.3869 78.4846 55.2566 78.4274C56.1262 78.3702 56.9635 78.0755 57.6774 77.5755L81.4984 60.9007C82.1254 60.4615 82.6373 59.8777 82.9908 59.1987C83.3443 58.5197 83.529 57.7655 83.5292 57Z" fill="#DC143B"/>
</svg>
