<svg width="114" height="114" viewBox="0 0 114 114" fill="none" xmlns="http://www.w3.org/2000/svg">
<path d="M16.2615 70.0875C13.3028 60.8573 13.559 50.897 16.9881 41.8312L16.9905 41.825L4.58872 37.1318L4.5834 37.1458C3.07291 41.1405 2.03292 45.2678 1.46553 49.4466C0.347226 57.6828 1.0648 66.1192 3.63425 74.1351C7.50888 86.2227 15.3658 96.6403 25.923 103.688C36.4802 110.735 49.1143 113.997 61.7637 112.94C74.413 111.883 86.3308 106.571 95.5722 97.8691C104.814 89.1674 110.833 77.5906 112.648 65.0276C114.464 52.4647 111.967 39.6574 105.567 28.6956C99.1669 17.7339 89.2405 9.26492 77.4077 4.67069C69.5608 1.62404 61.1827 0.400648 52.8942 1.02183C48.6839 1.33737 44.4967 2.12887 40.4139 3.39911L44.3531 16.0606L44.3595 16.0586C53.615 13.1806 63.5727 13.5236 72.6083 17.0318C81.646 20.5408 89.2277 27.0092 94.1161 35.3816C99.0045 43.754 100.911 53.536 99.5246 63.1314C98.1381 72.7267 93.5406 81.5689 86.4821 88.2151C79.4237 94.8613 70.3211 98.919 60.6597 99.7262C50.9984 100.533 41.3487 98.0422 33.2853 92.6594C25.2219 87.2765 19.2209 79.3198 16.2615 70.0875Z" fill="#DC143B"/>
<path d="M23.6216 27.8174C28.2783 27.8174 32.0533 24.0424 32.0533 19.3857C32.0533 14.729 28.2783 10.954 23.6216 10.954C18.9649 10.954 15.1899 14.729 15.1899 19.3857C15.1899 24.0424 18.9649 27.8174 23.6216 27.8174Z" fill="#DC143B"/>
<path fill-rule="evenodd" clip-rule="evenodd" d="M66.9554 69.855C66.837 70.1415 66.7218 70.4294 66.61 70.7186C60.4314 72.7832 53.7491 72.7832 47.5704 70.7186C47.4587 70.4293 47.3436 70.1415 47.225 69.855C46.8969 69.0605 46.7311 68.6598 46.4444 68.2937C46.1611 67.9241 45.6637 67.551 44.6689 66.8084C41.1857 64.2005 38.6116 60.5624 37.3116 56.4098C36.0116 52.2572 36.0515 47.8008 37.4258 43.6722C38.8001 39.5435 41.439 35.9522 44.9685 33.4072C48.4979 30.8622 52.7389 29.4926 57.0902 29.4926C61.4416 29.4926 65.6825 30.8622 69.212 33.4072C72.7414 35.9522 75.3803 39.5435 76.7546 43.6722C78.1289 47.8008 78.1689 52.2572 76.8689 56.4098C75.5688 60.5624 72.9948 64.2005 69.5115 66.8084C68.5167 67.551 68.0193 67.9241 67.7361 68.2937C67.4494 68.6598 67.287 69.0571 66.9554 69.855ZM49.6637 78.4214C49.9642 80.2418 50.1335 82.0863 50.1749 83.9412C50.1784 84.1865 50.2488 84.4261 50.3784 84.6343C50.5081 84.8425 50.6921 85.0113 50.9107 85.1226C52.8293 86.082 54.945 86.5815 57.0902 86.5815C59.2354 86.5815 61.3511 86.082 63.2698 85.1226C63.4883 85.0113 63.6724 84.8425 63.802 84.6343C63.9317 84.4261 64.0021 84.1865 64.0055 83.9412C64.047 82.0863 64.2162 80.2453 64.5168 78.4214C59.6168 79.4266 54.5637 79.4266 49.6637 78.4214Z" fill="#DC143B"/>
</svg>
