<svg width="114" height="114" viewBox="0 0 114 114" fill="none" xmlns="http://www.w3.org/2000/svg">
<path fill-rule="evenodd" clip-rule="evenodd" d="M111.961 104.66C112.77 103.85 113.225 102.752 113.225 101.606C113.225 100.461 112.77 99.3628 111.961 98.553C111.151 97.7432 110.052 97.2883 108.907 97.2883H5.27317C4.12794 97.2883 3.02961 97.7432 2.21982 98.553C1.41002 99.3628 0.955078 100.461 0.955078 101.606C0.955078 102.752 1.41002 103.85 2.21982 104.66C3.02961 105.47 4.12794 105.924 5.27317 105.924H108.907C110.052 105.924 111.151 105.47 111.961 104.66ZM113.225 80.016V19.5627C113.225 17.2723 112.315 15.0756 110.696 13.456C109.076 11.8364 106.88 10.9266 104.589 10.9266H9.59125C7.3008 10.9266 5.10415 11.8364 3.48455 13.456C1.86496 15.0756 0.955078 17.2723 0.955078 19.5627V80.016C0.955078 82.3064 1.86496 84.5031 3.48455 86.1227C5.10415 87.7422 7.3008 88.6521 9.59125 88.6521H104.589C106.88 88.6521 109.076 87.7422 110.696 86.1227C112.315 84.5031 113.225 82.3064 113.225 80.016ZM38.6706 41.8671C37.0956 46.0311 36.9779 50.606 38.3369 54.8456C39.6962 59.0862 42.4525 62.7408 46.1562 65.2132C49.8598 67.6857 54.2921 68.8299 58.7297 68.4591C63.1673 68.0884 67.3483 66.2246 70.5903 63.1719C73.8324 60.1192 75.9441 56.0579 76.5809 51.6506C77.2177 47.2433 76.342 42.7502 74.0967 38.9047C71.8514 35.0591 68.369 32.088 64.2179 30.4763C60.0677 28.8649 55.4939 28.7074 51.2427 30.0293L51.2398 30.0302L49.4304 24.2146C51.3057 23.6312 53.229 23.2676 55.1628 23.1227C58.9699 22.8374 62.8181 23.3993 66.4223 24.7987C71.8573 26.9089 76.4166 30.7988 79.3564 35.8337C82.2961 40.8686 83.4426 46.7512 82.6089 52.5215C81.7751 58.2919 79.0103 63.6093 74.7655 67.6062C70.5208 71.603 65.0468 74.0432 59.2367 74.5285C53.4267 75.0139 47.6236 73.5159 42.7746 70.2788C37.9255 67.0417 34.3167 62.2568 32.537 56.7047C31.3568 53.0229 31.0272 49.148 31.5409 45.3649C31.8015 43.4455 32.2792 41.5498 32.9729 39.715L32.9754 39.7085L38.6717 41.8642L38.6706 41.8671ZM45.5903 31.5575C45.5903 33.6964 43.8564 35.4303 41.7175 35.4303C39.5786 35.4303 37.8447 33.6964 37.8447 31.5575C37.8447 29.4186 39.5786 27.6847 41.7175 27.6847C43.8564 27.6847 45.5903 29.4186 45.5903 31.5575Z" fill="#DC143B"/>
</svg>
